<?xml version="1.0" encoding="utf-8"?>
<!-- Generator: Adobe Illustrator 26.2.1, SVG Export Plug-In . SVG Version: 6.00 Build 0)  -->
<svg version="1.1" baseProfile="basic" id="Ebene_1"
	 xmlns="http://www.w3.org/2000/svg" xmlns:xlink="http://www.w3.org/1999/xlink" x="0px" y="0px" viewBox="0 0 101.979 32.7"
	 xml:space="preserve">
<path d="M29.13,0.989h8.563c3.088,0,5.591,2.503,5.591,5.59c0,3.088-2.503,5.591-5.591,5.591h-7.445v7.907
	c0,1.278-1.917,1.278-1.917,0v-8.865c0-0.51,0.448-0.959,0.958-0.959h8.403c2.029,0,3.674-1.645,3.674-3.674
	s-1.645-3.674-3.674-3.674H29.13C27.852,2.905,27.852,0.989,29.13,0.989z"/>
<path d="M47.207,0.989h8.563c3.088,0,5.591,2.503,5.591,5.59c0,3.088-2.503,5.591-5.591,5.591h-7.445v7.907
	c0,1.278-1.917,1.278-1.917,0v-8.865c0-0.51,0.448-0.959,0.958-0.959h8.403c2.029,0,3.674-1.645,3.674-3.674
	s-1.645-3.674-3.674-3.674h-8.563C45.929,2.905,45.929,0.989,47.207,0.989z"/>
<path fill="#E11F1D" d="M63.252,11.379V1.994c0-1.121,0.975-1.474,1.694-0.615l7.858,9.399l7.858-9.399
	c0.719-0.86,1.694-0.506,1.694,0.615v18.17c0,1.278-1.917,1.278-1.917,0V4.635c-9.53,11.399-5.74,11.399-15.27,0v6.743
	C65.169,12.656,63.252,12.656,63.252,11.379z"/>
<path d="M100.098,2.915h-4.557c-4.541,0-8.221,3.68-8.221,8.221c0,4.54,3.68,8.22,8.221,8.22h4.557c1.262,0,1.262,1.894,0,1.894
	h-4.557c-5.586,0-10.115-4.528-10.115-10.114c0-5.586,4.529-10.114,10.115-10.114h4.557C101.361,1.021,101.361,2.915,100.098,2.915z
	"/>
<g>
	<path d="M31.929,28.749c0,0.783-0.584,1.519-1.56,1.519h-2.198v-5.509h1.999c0.888,0,1.463,0.503,1.463,1.359
		c0,0.496-0.216,1.008-0.728,1.215C31.61,27.518,31.929,28.173,31.929,28.749z M30.163,25.255h-1.464v1.871h1.567
		c0.544,0,0.84-0.424,0.84-0.968C31.106,25.599,30.746,25.255,30.163,25.255z M30.282,29.772c0.712,0,1.12-0.496,1.12-1.063
		c0-0.592-0.424-1.12-1.144-1.12h-1.56v2.183H30.282z"/>
	<path d="M35.746,26.534h0.512v3.734h-0.512v-0.656c-0.224,0.528-0.831,0.752-1.295,0.752c-0.903,0-1.52-0.624-1.511-1.655v-2.175
		h0.512v2.167c0,0.719,0.447,1.175,1.055,1.175c0.592,0,1.231-0.352,1.239-1.255V26.534z"/>
	<path d="M37.236,29.276h0.472c0.056,0.312,0.344,0.632,0.888,0.632c0.535,0,0.863-0.28,0.863-0.656c0-0.304-0.208-0.503-0.592-0.6
		l-0.536-0.128c-0.527-0.128-0.951-0.4-0.951-1.023c0-0.607,0.52-1.063,1.231-1.063c0.624,0,1.199,0.344,1.224,1.016h-0.496
		c-0.024-0.336-0.352-0.56-0.72-0.56c-0.432,0-0.728,0.264-0.728,0.616c0,0.352,0.304,0.503,0.576,0.567l0.551,0.136
		c0.729,0.176,0.952,0.616,0.952,1.047c0,0.664-0.6,1.104-1.375,1.104C37.947,30.364,37.299,29.988,37.236,29.276z"/>
	<path d="M40.836,25.159c0-0.216,0.184-0.368,0.392-0.368c0.224,0,0.399,0.152,0.399,0.368c0,0.208-0.176,0.36-0.399,0.36
		C41.019,25.519,40.836,25.367,40.836,25.159z M40.971,30.268v-3.734h0.512v3.734H40.971z"/>
	<path d="M46.089,28.093v2.175h-0.512v-2.151c0-0.72-0.456-1.175-1.056-1.175s-1.231,0.352-1.247,1.255v2.071h-0.512v-3.734h0.512
		v0.671c0.224-0.536,0.831-0.768,1.295-0.768C45.473,26.438,46.089,27.062,46.089,28.093z"/>
	<path d="M50.794,28.613h-3.215c0.089,0.8,0.648,1.264,1.399,1.264c0.512,0,0.968-0.248,1.216-0.656l0.439,0.192
		c-0.328,0.6-0.968,0.952-1.671,0.952c-1.056,0-1.896-0.792-1.896-1.975c0-1.184,0.84-1.951,1.896-1.951
		c1.063,0,1.847,0.768,1.847,1.951C50.809,28.461,50.801,28.541,50.794,28.613z M50.297,28.173
		c-0.071-0.776-0.607-1.248-1.335-1.248c-0.735,0-1.271,0.448-1.375,1.248H50.297z"/>
	<path d="M51.507,29.276h0.472c0.056,0.312,0.344,0.632,0.888,0.632c0.535,0,0.863-0.28,0.863-0.656c0-0.304-0.208-0.503-0.592-0.6
		l-0.536-0.128c-0.527-0.128-0.951-0.4-0.951-1.023c0-0.607,0.52-1.063,1.231-1.063c0.624,0,1.199,0.344,1.224,1.016H53.61
		c-0.024-0.336-0.352-0.56-0.72-0.56c-0.432,0-0.728,0.264-0.728,0.616c0,0.352,0.304,0.503,0.576,0.567l0.551,0.136
		c0.729,0.176,0.952,0.616,0.952,1.047c0,0.664-0.6,1.104-1.375,1.104C52.218,30.364,51.571,29.988,51.507,29.276z"/>
	<path d="M54.939,29.276h0.472c0.057,0.312,0.344,0.632,0.888,0.632c0.536,0,0.863-0.28,0.863-0.656c0-0.304-0.208-0.503-0.592-0.6
		l-0.535-0.128c-0.528-0.128-0.951-0.4-0.951-1.023c0-0.607,0.52-1.063,1.23-1.063c0.624,0,1.2,0.344,1.224,1.016h-0.496
		c-0.023-0.336-0.352-0.56-0.719-0.56c-0.433,0-0.728,0.264-0.728,0.616c0,0.352,0.304,0.503,0.575,0.567l0.552,0.136
		c0.728,0.176,0.951,0.616,0.951,1.047c0,0.664-0.6,1.104-1.375,1.104C55.651,30.364,55.004,29.988,54.939,29.276z"/>
	<path d="M60.947,30.268v-5.509h0.527v5.509H60.947z"/>
	<path d="M66.225,28.093v2.175h-0.512v-2.151c0-0.72-0.456-1.175-1.056-1.175s-1.231,0.352-1.247,1.255v2.071h-0.512v-3.734h0.512
		v0.671c0.224-0.536,0.831-0.768,1.295-0.768C65.609,26.438,66.225,27.062,66.225,28.093z"/>
	<path d="M69.01,26.534v0.439h-0.855v3.294h-0.504v-3.294h-0.68v-0.439h0.68v-1.399h0.504v1.399H69.01z"/>
	<path d="M73.193,28.613h-3.214c0.088,0.8,0.647,1.264,1.399,1.264c0.512,0,0.967-0.248,1.215-0.656l0.44,0.192
		c-0.328,0.6-0.968,0.952-1.672,0.952c-1.055,0-1.895-0.792-1.895-1.975c0-1.184,0.84-1.951,1.895-1.951
		c1.063,0,1.848,0.768,1.848,1.951C73.21,28.461,73.202,28.541,73.193,28.613z M72.698,28.173c-0.072-0.776-0.608-1.248-1.336-1.248
		c-0.735,0-1.271,0.448-1.375,1.248H72.698z"/>
	<path d="M74.211,30.268v-5.765h0.512v5.765H74.211z"/>
	<path d="M76.003,30.268v-5.765h0.512v5.765H76.003z"/>
	<path d="M77.659,25.159c0-0.216,0.184-0.368,0.392-0.368c0.225,0,0.4,0.152,0.4,0.368c0,0.208-0.176,0.36-0.4,0.36
		C77.842,25.519,77.659,25.367,77.659,25.159z M77.795,30.268v-3.734h0.512v3.734H77.795z"/>
	<path d="M82.713,26.534h0.512v3.222c0,1.807-0.808,2.423-2.023,2.423c-0.632,0-1.247-0.312-1.615-0.919l0.432-0.24
		c0.272,0.448,0.736,0.672,1.184,0.672c0.912,0,1.512-0.464,1.512-1.903v-0.24c-0.28,0.504-0.864,0.816-1.487,0.816
		c-1.04,0-1.896-0.832-1.896-1.967s0.848-1.959,1.896-1.959c0.632,0,1.207,0.312,1.487,0.816V26.534z M82.713,28.413
		c0-0.903-0.704-1.487-1.447-1.487c-0.784,0-1.424,0.64-1.424,1.463c0,0.832,0.64,1.487,1.424,1.487
		C82.042,29.876,82.713,29.276,82.713,28.413z"/>
	<path d="M87.985,28.613H84.77c0.089,0.8,0.648,1.264,1.399,1.264c0.512,0,0.968-0.248,1.216-0.656l0.439,0.192
		c-0.328,0.6-0.968,0.952-1.671,0.952c-1.056,0-1.896-0.792-1.896-1.975c0-1.184,0.84-1.951,1.896-1.951
		c1.063,0,1.847,0.768,1.847,1.951C88.001,28.461,87.993,28.541,87.985,28.613z M87.489,28.173
		c-0.071-0.776-0.607-1.248-1.335-1.248c-0.735,0-1.271,0.448-1.375,1.248H87.489z"/>
	<path d="M92.329,28.093v2.175h-0.512v-2.151c0-0.72-0.455-1.175-1.055-1.175c-0.601,0-1.231,0.352-1.248,1.255v2.071h-0.512v-3.734
		h0.512v0.671c0.225-0.536,0.832-0.768,1.296-0.768C91.713,26.438,92.329,27.062,92.329,28.093z"/>
	<path d="M93.291,28.397c0-1.183,0.911-1.959,1.983-1.959c0.527,0,1.007,0.2,1.335,0.512l-0.312,0.352
		c-0.256-0.232-0.616-0.376-1.008-0.376c-0.823,0-1.487,0.592-1.487,1.471c0,0.872,0.664,1.479,1.487,1.479
		c0.392,0,0.743-0.144,1.008-0.376l0.319,0.352c-0.336,0.319-0.815,0.512-1.343,0.512C94.202,30.364,93.291,29.581,93.291,28.397z"
		/>
	<path d="M100.928,28.613h-3.214c0.088,0.8,0.647,1.264,1.399,1.264c0.512,0,0.967-0.248,1.215-0.656l0.44,0.192
		c-0.328,0.6-0.968,0.952-1.672,0.952c-1.055,0-1.895-0.792-1.895-1.975c0-1.184,0.84-1.951,1.895-1.951
		c1.063,0,1.848,0.768,1.848,1.951C100.945,28.461,100.937,28.541,100.928,28.613z M100.433,28.173
		c-0.072-0.776-0.608-1.248-1.336-1.248c-0.735,0-1.271,0.448-1.375,1.248H100.433z"/>
</g>
<g>
	<path fill-rule="evenodd" clip-rule="evenodd" d="M6.164,5.042c1.299-1.058,2.957-1.693,4.763-1.693
		c2.898,0,5.414,1.633,6.678,4.03h2.638c-1.421-3.763-5.056-6.439-9.316-6.439c-3.311,0-6.244,1.616-8.054,4.102H6.164L6.164,5.042z
		"/>
	<path fill-rule="evenodd" clip-rule="evenodd" fill="#E11F1D" d="M12.345,15.531c-1.986,0-3.724-1.06-4.68-2.645H4.994
		c1.133,2.956,3.997,5.054,7.351,5.054c3.899,0,7.135-2.835,7.76-6.557h-2.459C17.058,13.765,14.908,15.531,12.345,15.531
		L12.345,15.531z"/>
	<path fill-rule="evenodd" clip-rule="evenodd" d="M1.282,7.974h5.675c0.59,0,1.073,0.483,1.073,1.073
		c0,0.59-0.483,1.073-1.073,1.073H3.165c-1.393,0.099-2.226,1.006-2.213,2.409c0.001,0.081,0.004,0.165,0.011,0.249
		c0.064,0.827,0.382,1.584,0.748,2.319c1.087,2.181,2.823,3.941,5.507,5.085c2.251,0.96,3.738,1.119,6.151,0.64
		c3.412-0.677,6.164-2.688,7.583-6.303c-2.063,2.689-4.477,3.974-7.103,4.411c-2.19,0.364-4.159,0.292-6.147-0.763
		c-3.428-1.818-5.273-5.545-3.443-5.638c0.047-0.002,0.096-0.002,0.147,0h2.551c1.92,0,3.482-1.562,3.482-3.482
		c0-1.92-1.562-3.482-3.482-3.482h-4.44C2.026,6.309,1.615,7.112,1.282,7.974L1.282,7.974z"/>
	<path fill-rule="evenodd" clip-rule="evenodd" fill="#E11F1D" d="M15.969,6.639c-1.932-2.248-4.549-2.783-7.879-1.534
		c0.785,0.226,1.474,0.68,1.99,1.286C11.847,5.436,13.818,5.56,15.969,6.639L15.969,6.639z"/>
</g>
</svg>
