<svg xmlns="http://www.w3.org/2000/svg" xmlns:xlink="http://www.w3.org/1999/xlink" width="1920" zoomAndPan="magnify" viewBox="0 0 1440 809.999993" height="1080" preserveAspectRatio="xMidYMid meet" version="1.0"><defs><clipPath id="d3f86cfe49"><path d="M 658 43 L 740.261719 43 L 740.261719 174 L 658 174 Z M 658 43 " clip-rule="nonzero"/></clipPath><clipPath id="d4f59b5ae3"><path d="M 658 680 L 740.261719 680 L 740.261719 810 L 658 810 Z M 658 680 " clip-rule="nonzero"/></clipPath></defs><path fill="#ffffff" d="M 28.953125 75.519531 L 28.953125 173.707031 L 111.457031 142.105469 L 111.457031 43.914062 Z M 28.953125 75.519531 " fill-opacity="1" fill-rule="evenodd"/><path fill="#ffffff" d="M 7.585938 173.707031 L 7.585938 75.519531 L -74.917969 43.914062 L -74.917969 142.105469 Z M 7.585938 173.707031 " fill-opacity="1" fill-rule="evenodd"/><path fill="#a100ff" d="M -55.722656 28.390625 L 18.269531 56.734375 L 92.28125 28.390625 L 18.269531 0.0273438 Z M -55.722656 28.390625 " fill-opacity="1" fill-rule="evenodd"/><path fill="#ffffff" d="M 554.152344 43.914062 L 554.152344 142.105469 L 636.640625 173.707031 L 636.640625 75.519531 Z M 554.152344 43.914062 " fill-opacity="1" fill-rule="evenodd"/><path fill="#a100ff" d="M 573.328125 28.390625 L 647.324219 56.734375 L 721.335938 28.390625 L 647.324219 0.0273438 Z M 573.328125 28.390625 " fill-opacity="1" fill-rule="evenodd"/><g clip-path="url(#d3f86cfe49)"><path fill="#ffffff" d="M 740.507812 43.914062 L 658.003906 75.519531 L 658.003906 173.707031 L 740.507812 142.105469 Z M 740.507812 43.914062 " fill-opacity="1" fill-rule="evenodd"/></g><path fill="#a100ff" d="M 647.324219 636.1875 L 573.328125 664.53125 L 647.324219 692.875 L 721.335938 664.53125 Z M 647.324219 636.1875 " fill-opacity="1" fill-rule="evenodd"/><g clip-path="url(#d4f59b5ae3)"><path fill="#ffffff" d="M 740.507812 680.074219 L 658.003906 711.675781 L 658.003906 809.863281 L 740.507812 778.261719 Z M 740.507812 680.074219 " fill-opacity="1" fill-rule="evenodd"/></g><path fill="#ffffff" d="M 636.640625 809.863281 L 636.640625 711.675781 L 554.152344 680.074219 L 554.152344 778.261719 Z M 636.640625 809.863281 " fill-opacity="1" fill-rule="evenodd"/><path fill="#ffffff" d="M 636.640625 580.421875 C 636.640625 586.335938 641.429688 591.105469 647.324219 591.105469 C 653.234375 591.105469 658.003906 586.335938 658.003906 580.421875 L 658.003906 233.9375 C 658.003906 228.046875 653.234375 223.257812 647.324219 223.257812 C 641.429688 223.257812 636.640625 228.046875 636.640625 233.9375 Z M 636.640625 580.421875 " fill-opacity="1" fill-rule="evenodd"/><path fill="#ffffff" d="M 111.457031 778.261719 L 111.457031 680.074219 L 28.953125 711.675781 L 28.953125 809.863281 Z M 111.457031 778.261719 " fill-opacity="1" fill-rule="evenodd"/><path fill="#ffffff" d="M 7.585938 809.863281 L 7.585938 711.675781 L -74.917969 680.074219 L -74.917969 778.261719 Z M 7.585938 809.863281 " fill-opacity="1" fill-rule="evenodd"/><path fill="#a100ff" d="M -55.722656 664.53125 L 18.269531 692.875 L 92.28125 664.53125 L 18.269531 636.1875 Z M -55.722656 664.53125 " fill-opacity="1" fill-rule="evenodd"/><path fill="#ffffff" d="M 7.585938 235.273438 L 7.585938 578.125 C 7.585938 584.019531 12.375 588.808594 18.269531 588.808594 C 24.179688 588.808594 28.953125 584.019531 28.953125 578.125 L 28.953125 235.273438 C 28.953125 229.378906 24.179688 224.589844 18.269531 224.589844 C 12.375 224.589844 7.585938 229.378906 7.585938 235.273438 Z M 7.585938 235.273438 " fill-opacity="1" fill-rule="evenodd"/><path fill="#ffffff" d="M 167.003906 103.148438 L 501.722656 103.148438 C 507.613281 103.148438 512.402344 98.359375 512.402344 92.46875 C 512.402344 86.574219 507.613281 81.785156 501.722656 81.785156 L 167.003906 81.785156 C 161.09375 81.785156 156.324219 86.574219 156.324219 92.46875 C 156.324219 98.359375 161.09375 103.148438 167.003906 103.148438 Z M 167.003906 103.148438 " fill-opacity="1" fill-rule="evenodd"/><path fill="#ffffff" d="M 502.09375 710.839844 L 165.988281 710.839844 C 160.097656 710.839844 155.308594 715.628906 155.308594 721.519531 C 155.308594 727.414062 160.097656 732.203125 165.988281 732.203125 L 502.09375 732.203125 C 507.988281 732.203125 512.777344 727.414062 512.777344 721.519531 C 512.777344 715.628906 507.988281 710.839844 502.09375 710.839844 Z M 502.09375 710.839844 " fill-opacity="1" fill-rule="evenodd"/><path fill="#a100ff" d="M 311.09375 565.804688 L 354.515625 565.804688 L 360.75 536.730469 C 362.191406 530.089844 366.855469 524.785156 373.265625 522.542969 C 377.539062 521.046875 381.773438 519.285156 385.851562 517.308594 C 391.976562 514.371094 399.046875 514.796875 404.761719 518.5 L 429.738281 534.632812 L 460.453125 503.9375 L 444.304688 478.957031 C 440.617188 473.242188 440.171875 466.175781 443.128906 460.050781 C 445.105469 455.957031 446.847656 451.71875 448.34375 447.460938 C 450.589844 441.054688 455.894531 436.371094 462.535156 434.945312 L 491.609375 428.695312 L 491.609375 385.273438 L 462.535156 379.042969 C 455.894531 377.617188 450.589844 372.933594 448.34375 366.527344 C 446.847656 362.269531 445.085938 358.03125 443.128906 353.9375 C 440.171875 347.8125 440.617188 340.746094 444.304688 335.03125 L 460.453125 310.050781 L 429.738281 279.355469 L 404.761719 295.488281 C 399.046875 299.191406 391.976562 299.617188 385.851562 296.664062 C 381.773438 294.703125 377.539062 292.941406 373.265625 291.445312 C 366.855469 289.203125 362.191406 283.898438 360.75 277.257812 L 354.515625 248.183594 L 311.09375 248.183594 L 304.84375 277.257812 C 303.417969 283.898438 298.738281 289.203125 292.328125 291.445312 C 288.074219 292.941406 283.851562 294.703125 279.738281 296.679688 C 273.617188 299.617188 266.546875 299.191406 260.832031 295.488281 L 235.871094 279.355469 L 205.160156 310.050781 L 221.308594 335.03125 C 224.992188 340.746094 225.4375 347.8125 222.480469 353.9375 C 220.507812 358.03125 218.742188 362.269531 217.265625 366.527344 C 215.003906 372.933594 209.699219 377.617188 203.058594 379.042969 L 174.003906 385.273438 L 174.003906 428.699219 L 203.058594 434.945312 C 209.699219 436.371094 215.003906 441.054688 217.265625 447.460938 C 218.742188 451.71875 220.507812 455.957031 222.480469 460.050781 C 225.4375 466.175781 224.992188 473.242188 221.308594 478.957031 L 205.160156 503.9375 L 235.851562 534.632812 L 260.832031 518.5 C 266.546875 514.796875 273.617188 514.351562 279.757812 517.308594 C 283.835938 519.285156 288.074219 521.046875 292.328125 522.542969 C 298.738281 524.785156 303.417969 530.089844 304.84375 536.730469 Z M 332.796875 498.542969 C 282.320312 498.542969 241.246094 457.46875 241.246094 406.992188 C 241.246094 356.519531 282.320312 315.445312 332.796875 315.445312 C 383.289062 315.445312 424.34375 356.519531 424.34375 406.992188 C 424.34375 457.46875 383.289062 498.542969 332.796875 498.542969 Z M 332.796875 498.542969 " fill-opacity="1" fill-rule="evenodd"/><path fill="#ffffff" d="M 108.464844 646.441406 L 212.03125 542.890625 L 196.914062 527.777344 L 86.621094 638.074219 Z M 108.464844 646.441406 " fill-opacity="1" fill-rule="evenodd"/><path fill="#ffffff" d="M 453.578125 542.875 L 557.144531 646.441406 L 578.972656 638.089844 L 468.695312 527.777344 Z M 453.578125 542.875 " fill-opacity="1" fill-rule="evenodd"/><path fill="#ffffff" d="M 468.695312 286.210938 L 578.972656 175.914062 L 557.144531 167.546875 L 453.578125 271.113281 Z M 468.695312 286.210938 " fill-opacity="1" fill-rule="evenodd"/><path fill="#ffffff" d="M 212.03125 271.132812 L 108.464844 167.546875 L 86.621094 175.914062 L 196.914062 286.230469 Z M 212.03125 271.132812 " fill-opacity="1" fill-rule="evenodd"/></svg>