<svg xmlns="http://www.w3.org/2000/svg" xmlns:xlink="http://www.w3.org/1999/xlink" width="1920" zoomAndPan="magnify" viewBox="0 0 1440 809.999993" height="1080" preserveAspectRatio="xMidYMid meet" version="1.0"><defs><clipPath id="f151790833"><path d="M 267 0 L 669.113281 0 L 669.113281 808 L 267 808 Z M 267 0 " clip-rule="nonzero"/></clipPath></defs><path fill="#5fa5db" d="M 310.601562 132.710938 L 288.519531 172.460938 C 287.800781 173.753906 286.4375 174.554688 284.957031 174.554688 L 255.191406 174.554688 C 253.710938 174.554688 252.347656 173.753906 251.628906 172.460938 L 229.546875 132.710938 C 228.640625 131.074219 226.734375 130.269531 224.929688 130.753906 L 172.03125 144.925781 C 170.226562 145.410156 168.980469 147.0625 169.007812 148.929688 L 169.761719 194.390625 C 169.785156 195.871094 169.003906 197.25 167.722656 197.988281 L 141.945312 212.871094 C 140.664062 213.613281 139.082031 213.597656 137.808594 212.839844 L 98.816406 189.457031 C 97.210938 188.496094 95.160156 188.746094 93.839844 190.070312 L 55.113281 228.792969 C 53.789062 230.117188 53.539062 232.167969 54.5 233.769531 L 77.886719 272.769531 C 78.648438 274.039062 78.660156 275.621094 77.921875 276.902344 L 63.039062 302.683594 C 62.296875 303.964844 60.917969 304.746094 59.441406 304.71875 L 13.976562 303.96875 C 12.109375 303.9375 10.457031 305.183594 9.976562 306.988281 L -4.199219 359.886719 C -4.683594 361.695312 -3.875 363.597656 -2.238281 364.503906 L 37.507812 386.585938 C 38.804688 387.304688 39.605469 388.671875 39.605469 390.148438 L 39.605469 419.917969 C 39.605469 421.398438 38.804688 422.761719 37.507812 423.480469 L -2.238281 445.5625 C -3.875 446.46875 -4.679688 448.371094 -4.199219 450.179688 L 9.976562 503.078125 C 10.460938 504.882812 12.109375 506.128906 13.976562 506.097656 L 59.441406 505.347656 C 60.921875 505.324219 62.296875 506.101562 63.039062 507.382812 L 77.921875 533.164062 C 78.660156 534.445312 78.648438 536.027344 77.886719 537.296875 L 54.503906 576.292969 C 53.542969 577.898438 53.796875 579.949219 55.121094 581.269531 L 93.84375 619.996094 C 95.167969 621.316406 97.21875 621.570312 98.820312 620.609375 L 137.820312 597.226562 C 139.085938 596.464844 140.671875 596.453125 141.953125 597.191406 L 167.730469 612.078125 C 169.015625 612.816406 169.792969 614.195312 169.769531 615.671875 L 169.019531 661.136719 C 168.988281 663.003906 170.234375 664.65625 172.039062 665.140625 L 224.9375 679.3125 C 226.742188 679.796875 228.648438 678.988281 229.554688 677.355469 L 251.636719 637.605469 C 252.355469 636.308594 253.71875 635.507812 255.199219 635.507812 L 284.964844 635.507812 C 286.445312 635.507812 287.808594 636.308594 288.53125 637.605469 L 310.609375 677.355469 C 311.519531 678.988281 313.421875 679.792969 315.226562 679.3125 L 368.125 665.140625 C 369.933594 664.652344 371.175781 663.003906 371.148438 661.136719 L 370.394531 615.671875 C 370.371094 614.191406 371.152344 612.816406 372.433594 612.078125 L 398.210938 597.191406 C 399.492188 596.453125 401.074219 596.464844 402.347656 597.226562 L 441.34375 620.609375 C 442.945312 621.570312 445 621.316406 446.320312 619.996094 L 485.042969 581.269531 C 486.367188 579.949219 486.617188 577.898438 485.65625 576.292969 L 462.277344 537.296875 C 461.515625 536.027344 461.503906 534.445312 462.242188 533.164062 L 477.125 507.382812 C 477.867188 506.101562 479.242188 505.324219 480.722656 505.347656 L 526.183594 506.097656 C 528.054688 506.128906 529.707031 504.882812 530.1875 503.078125 L 544.363281 450.179688 C 544.847656 448.371094 544.039062 446.46875 542.402344 445.5625 L 502.652344 423.480469 C 501.359375 422.761719 500.558594 421.398438 500.558594 419.917969 L 500.558594 390.148438 C 500.558594 388.667969 501.359375 387.304688 502.652344 386.585938 L 542.402344 364.503906 C 544.039062 363.597656 544.84375 361.695312 544.363281 359.886719 L 530.1875 306.988281 C 529.703125 305.183594 528.054688 303.9375 526.183594 303.96875 L 480.722656 304.71875 C 479.242188 304.746094 477.863281 303.964844 477.125 302.683594 L 462.242188 276.902344 C 461.5 275.621094 461.515625 274.039062 462.277344 272.769531 L 485.65625 233.773438 C 486.617188 232.167969 486.367188 230.117188 485.042969 228.796875 L 446.320312 190.070312 C 444.996094 188.75 442.945312 188.496094 441.339844 189.457031 L 402.347656 212.839844 C 401.078125 213.601562 399.492188 213.613281 398.210938 212.875 L 372.433594 197.992188 C 371.152344 197.25 370.371094 195.871094 370.394531 194.394531 L 371.148438 148.929688 C 371.175781 147.0625 369.933594 145.410156 368.125 144.929688 L 315.226562 130.753906 C 313.414062 130.269531 311.511719 131.078125 310.601562 132.710938 Z M 402.488281 231.273438 L 438.867188 209.460938 C 440.472656 208.5 442.523438 208.75 443.84375 210.074219 L 465.035156 231.261719 C 466.355469 232.585938 466.609375 234.636719 465.648438 236.238281 L 443.835938 272.617188 C 443.074219 273.886719 443.0625 275.472656 443.800781 276.753906 L 468.03125 318.722656 C 468.769531 320.003906 470.148438 320.785156 471.628906 320.761719 L 514.039062 320.058594 C 515.910156 320.027344 517.558594 321.273438 518.042969 323.078125 L 525.800781 352.023438 C 526.285156 353.828125 525.476562 355.734375 523.839844 356.640625 L 486.761719 377.238281 C 485.464844 377.960938 484.664062 379.324219 484.664062 380.804688 L 484.664062 429.265625 C 484.664062 430.746094 485.464844 432.109375 486.761719 432.828125 L 523.839844 453.429688 C 525.476562 454.335938 526.28125 456.238281 525.800781 458.046875 L 518.042969 486.992188 C 517.558594 488.796875 515.90625 490.042969 514.039062 490.011719 L 471.628906 489.308594 C 470.148438 489.285156 468.769531 490.066406 468.03125 491.347656 L 443.800781 533.316406 C 443.0625 534.597656 443.074219 536.179688 443.835938 537.449219 L 465.648438 573.828125 C 466.609375 575.433594 466.355469 577.484375 465.035156 578.804688 L 443.84375 599.996094 C 442.523438 601.316406 440.472656 601.570312 438.867188 600.609375 L 402.488281 578.796875 C 401.21875 578.035156 399.636719 578.023438 398.355469 578.761719 L 356.386719 602.992188 C 355.105469 603.730469 354.324219 605.109375 354.347656 606.589844 L 355.050781 649 C 355.082031 650.871094 353.835938 652.519531 352.027344 653.003906 L 323.082031 660.761719 C 321.277344 661.246094 319.375 660.4375 318.464844 658.800781 L 297.867188 621.71875 C 297.148438 620.425781 295.785156 619.625 294.304688 619.625 L 245.84375 619.625 C 244.363281 619.625 242.996094 620.425781 242.277344 621.71875 L 221.679688 658.800781 C 220.773438 660.4375 218.867188 661.242188 217.0625 660.761719 L 188.117188 653.003906 C 186.3125 652.519531 185.066406 650.867188 185.097656 649 L 185.796875 606.589844 C 185.820312 605.109375 185.042969 603.730469 183.761719 602.992188 L 141.792969 578.761719 C 140.511719 578.019531 138.929688 578.035156 137.65625 578.796875 L 101.277344 600.609375 C 99.675781 601.570312 97.621094 601.316406 96.300781 599.996094 L 75.113281 578.804688 C 73.789062 577.484375 73.539062 575.433594 74.5 573.828125 L 96.3125 537.449219 C 97.074219 536.179688 97.085938 534.597656 96.347656 533.316406 L 72.113281 491.347656 C 71.375 490.066406 69.996094 489.285156 68.519531 489.308594 L 26.105469 490.011719 C 24.238281 490.042969 22.585938 488.796875 22.105469 486.992188 L 14.347656 458.046875 C 13.863281 456.238281 14.671875 454.335938 16.304688 453.429688 L 53.386719 432.828125 C 54.683594 432.109375 55.484375 430.746094 55.484375 429.265625 L 55.484375 380.804688 C 55.484375 379.324219 54.683594 377.960938 53.386719 377.238281 L 16.308594 356.640625 C 14.671875 355.734375 13.867188 353.828125 14.347656 352.023438 L 22.105469 323.078125 C 22.589844 321.273438 24.242188 320.027344 26.109375 320.058594 L 68.519531 320.761719 C 70 320.785156 71.378906 320.003906 72.117188 318.722656 L 96.347656 276.753906 C 97.085938 275.472656 97.074219 273.890625 96.3125 272.617188 L 74.5 236.238281 C 73.539062 234.636719 73.792969 232.582031 75.113281 231.261719 L 96.304688 210.074219 C 97.625 208.75 99.675781 208.5 101.28125 209.460938 L 137.660156 231.273438 C 138.929688 232.035156 140.511719 232.046875 141.792969 231.308594 L 183.761719 207.078125 C 185.042969 206.335938 185.824219 204.957031 185.800781 203.480469 L 185.097656 161.066406 C 185.066406 159.199219 186.3125 157.546875 188.117188 157.066406 L 217.0625 149.308594 C 218.871094 148.824219 220.773438 149.632812 221.683594 151.265625 L 242.28125 188.347656 C 243 189.644531 244.363281 190.445312 245.84375 190.445312 L 294.304688 190.445312 C 295.785156 190.445312 297.152344 189.644531 297.871094 188.347656 L 318.46875 151.265625 C 319.375 149.632812 321.28125 148.824219 323.085938 149.308594 L 352.03125 157.066406 C 353.835938 157.550781 355.082031 159.199219 355.050781 161.066406 L 354.351562 203.480469 C 354.324219 204.960938 355.105469 206.335938 356.386719 207.078125 L 398.355469 231.308594 C 399.636719 232.046875 401.21875 232.035156 402.488281 231.273438 Z M 402.488281 231.273438 " fill-opacity="1" fill-rule="nonzero"/><path fill="#5fa5db" d="M 270.074219 246.097656 C 248.625 246.097656 227.808594 250.300781 208.207031 258.589844 C 189.28125 266.59375 172.285156 278.050781 157.691406 292.648438 C 143.101562 307.242188 131.640625 324.238281 123.636719 343.164062 C 115.347656 362.761719 111.140625 383.578125 111.140625 405.03125 C 111.140625 426.480469 115.347656 447.296875 123.636719 466.894531 C 131.640625 485.824219 143.097656 502.820312 157.691406 517.410156 C 172.285156 532.003906 189.28125 543.464844 208.207031 551.46875 C 227.808594 559.757812 248.625 563.964844 270.074219 563.964844 C 291.527344 563.964844 312.34375 559.757812 331.941406 551.46875 C 350.867188 543.464844 367.863281 532.007812 382.457031 517.410156 C 397.050781 502.820312 408.507812 485.824219 416.515625 466.894531 C 424.804688 447.296875 429.007812 426.480469 429.007812 405.03125 C 429.007812 383.578125 424.804688 362.761719 416.515625 343.164062 C 408.511719 324.238281 397.050781 307.242188 382.457031 292.648438 C 367.863281 278.054688 350.867188 266.597656 331.941406 258.589844 C 312.34375 250.300781 291.527344 246.097656 270.074219 246.097656 Z M 411.746094 384.933594 C 424.699219 479.492188 344.539062 559.652344 249.980469 546.699219 C 186.859375 538.054688 137.054688 488.246094 128.40625 425.128906 C 115.453125 330.570312 195.613281 250.410156 290.171875 263.363281 C 353.292969 272.007812 403.097656 321.816406 411.746094 384.933594 Z M 411.746094 384.933594 " fill-opacity="1" fill-rule="nonzero"/><path fill="#5fa5db" d="M 209.058594 443.144531 L 175.46875 443.144531 C 173.738281 443.144531 172.324219 444.554688 172.324219 446.289062 L 172.324219 496.207031 C 172.324219 497.9375 173.734375 499.351562 175.46875 499.351562 L 209.058594 499.351562 C 210.792969 499.351562 212.203125 497.941406 212.203125 496.207031 L 212.203125 446.285156 C 212.203125 444.554688 210.792969 443.144531 209.058594 443.144531 Z M 209.058594 443.144531 " fill-opacity="1" fill-rule="nonzero"/><path fill="#5fa5db" d="M 259.628906 428.386719 L 223.644531 428.386719 C 221.910156 428.386719 220.5 429.796875 220.5 431.53125 L 220.5 496.207031 C 220.5 497.9375 221.90625 499.351562 223.644531 499.351562 L 259.628906 499.351562 C 261.359375 499.351562 262.769531 497.941406 262.769531 496.207031 L 262.769531 431.53125 C 262.769531 429.796875 261.359375 428.386719 259.628906 428.386719 Z M 259.628906 428.386719 " fill-opacity="1" fill-rule="nonzero"/><path fill="#5fa5db" d="M 312.085938 400.519531 L 276.101562 400.519531 C 274.371094 400.519531 272.957031 401.925781 272.957031 403.660156 L 272.957031 496.207031 C 272.957031 497.9375 274.367188 499.351562 276.101562 499.351562 L 312.085938 499.351562 C 313.820312 499.351562 315.230469 497.941406 315.230469 496.207031 L 315.230469 403.660156 C 315.230469 401.929688 313.820312 400.519531 312.085938 400.519531 Z M 312.085938 400.519531 " fill-opacity="1" fill-rule="nonzero"/><path fill="#5fa5db" d="M 360.144531 359.535156 L 325.636719 359.535156 C 323.90625 359.535156 322.492188 360.945312 322.492188 362.679688 L 322.492188 496.207031 C 322.492188 497.9375 323.902344 499.351562 325.636719 499.351562 L 360.144531 499.351562 C 361.878906 499.351562 363.289062 497.941406 363.289062 496.207031 L 363.289062 362.679688 C 363.289062 360.945312 361.878906 359.535156 360.144531 359.535156 Z M 360.144531 359.535156 " fill-opacity="1" fill-rule="nonzero"/><path fill="#5fa5db" d="M 282.054688 318.625 L 292.070312 325.128906 C 292.074219 325.132812 292.078125 325.136719 292.074219 325.140625 C 287.34375 333.007812 281.914062 340.503906 275.898438 347.472656 C 271.238281 352.871094 266.15625 358.03125 260.800781 362.808594 C 260.773438 362.832031 260.746094 362.855469 260.71875 362.882812 C 260.289062 363.28125 259.816406 363.683594 259.316406 364.109375 C 259.132812 364.265625 258.949219 364.421875 258.777344 364.566406 L 256.65625 366.378906 C 256.640625 366.394531 256.625 366.40625 256.605469 366.421875 C 256.382812 366.621094 256.117188 366.832031 255.835938 367.058594 L 252.472656 369.757812 L 250.3125 371.390625 C 250.035156 371.597656 249.761719 371.804688 249.492188 372.011719 C 249.027344 372.363281 248.589844 372.691406 248.152344 373.011719 L 244.226562 375.789062 L 243.703125 376.136719 C 243.6875 376.148438 243.675781 376.15625 243.664062 376.164062 C 231.519531 384.40625 218.285156 391.0625 204.335938 395.953125 C 197.335938 398.410156 190.09375 400.433594 182.804688 401.96875 C 181.621094 402.210938 180.398438 402.445312 179.214844 402.671875 C 178.5625 402.796875 177.914062 402.921875 177.261719 403.046875 L 171.652344 403.949219 L 160.269531 405.59375 C 157.8125 405.945312 155.929688 408.050781 155.996094 410.53125 C 156.0625 413.175781 158.226562 415.257812 160.839844 415.257812 C 160.851562 415.257812 160.859375 415.257812 160.867188 415.257812 L 172.53125 415.195312 C 172.554688 415.195312 172.582031 415.195312 172.609375 415.195312 L 178.46875 415.070312 C 178.523438 415.070312 178.574219 415.070312 178.628906 415.0625 C 179.296875 415.027344 179.964844 414.996094 180.632812 414.960938 C 181.910156 414.894531 183.226562 414.828125 184.542969 414.746094 C 184.554688 414.746094 184.5625 414.746094 184.574219 414.746094 C 192.601562 414.183594 200.6875 413.09375 208.597656 411.496094 C 224.628906 408.269531 240.230469 402.949219 254.972656 395.691406 L 255.632812 395.371094 C 255.675781 395.351562 255.714844 395.332031 255.753906 395.3125 L 260.460938 392.878906 C 260.476562 392.871094 260.496094 392.859375 260.511719 392.851562 C 261.136719 392.519531 261.742188 392.179688 262.328125 391.851562 C 262.625 391.6875 262.925781 391.519531 263.222656 391.355469 C 263.230469 391.351562 263.238281 391.347656 263.246094 391.34375 L 265.894531 389.867188 C 265.933594 389.84375 265.972656 389.820312 266.011719 389.796875 L 270.066406 387.378906 C 270.484375 387.132812 270.910156 386.875 271.363281 386.582031 L 273.921875 384.949219 C 274.121094 384.820312 274.320312 384.695312 274.523438 384.566406 C 275.191406 384.140625 275.882812 383.703125 276.585938 383.210938 C 283.503906 378.582031 290.1875 373.449219 296.449219 367.957031 C 304.976562 360.480469 312.886719 352.191406 320.007812 343.265625 C 320.011719 343.261719 320.019531 343.261719 320.023438 343.265625 L 328.28125 348.625 C 329.5 349.414062 331.011719 349.683594 332.402344 349.257812 C 334.492188 348.625 335.855469 346.71875 335.855469 344.613281 L 335.855469 293.914062 C 335.855469 292.667969 335.429688 291.445312 334.582031 290.53125 C 333.132812 288.960938 330.898438 288.546875 329.03125 289.378906 L 282.632812 310.074219 C 280.710938 310.929688 279.527344 312.953125 279.796875 315.117188 C 279.972656 316.566406 280.832031 317.835938 282.054688 318.625 Z M 282.054688 318.625 " fill-opacity="1" fill-rule="nonzero"/><path fill="#5fa5db" d="M 275.191406 722.699219 C 276.582031 720.703125 275.214844 717.957031 272.785156 717.859375 L 263.277344 717.480469 C 94.960938 710.773438 -36.886719 573.492188 -36.886719 404.949219 C -36.886719 244.949219 87.808594 108.140625 246.992188 93.488281 L 249.15625 93.292969 C 250.21875 93.195312 251.191406 92.628906 251.800781 91.75 L 280.507812 50.515625 C 281.429688 49.1875 281.363281 47.40625 280.339844 46.152344 L 245.070312 2.890625 C 244.308594 1.957031 243.132812 1.460938 241.933594 1.570312 L 239.464844 1.789062 C 224.308594 3.144531 209.136719 5.363281 194.367188 8.382812 C 168.355469 13.707031 142.769531 21.648438 118.320312 31.988281 C 94.324219 42.136719 71.183594 54.699219 49.542969 69.320312 C 28.121094 83.792969 7.972656 100.414062 -10.332031 118.71875 C -28.636719 137.023438 -45.257812 157.171875 -59.730469 178.59375 C -74.351562 200.234375 -86.914062 223.375 -97.0625 247.371094 C -107.402344 271.820312 -115.34375 297.40625 -120.667969 323.417969 C -126.121094 350.082031 -128.890625 377.511719 -128.890625 404.945312 C -128.890625 432.382812 -126.121094 459.8125 -120.667969 486.476562 C -115.34375 512.488281 -107.402344 538.070312 -97.0625 562.523438 C -86.914062 586.515625 -74.351562 609.65625 -59.730469 631.296875 C -45.257812 652.722656 -28.636719 672.867188 -10.332031 691.171875 C 7.972656 709.480469 28.117188 726.101562 49.542969 740.574219 C 71.183594 755.195312 94.324219 767.757812 118.320312 777.90625 C 142.769531 788.246094 168.355469 796.1875 194.367188 801.511719 C 216.59375 806.058594 239.46875 808.75 262.363281 809.507812 L 273.816406 809.886719 C 276.460938 809.976562 277.980469 806.910156 276.308594 804.859375 L 246.324219 768.078125 C 245.453125 767.011719 245.394531 765.5 246.183594 764.371094 Z M 197.691406 785.257812 C 172.753906 780.15625 148.222656 772.542969 124.78125 762.625 C 101.773438 752.894531 79.582031 740.851562 58.828125 726.828125 C 38.28125 712.945312 18.957031 697.003906 1.398438 679.445312 C -16.160156 661.886719 -32.101562 642.5625 -45.988281 622.011719 C -60.011719 601.253906 -72.050781 579.066406 -81.785156 556.058594 C -91.699219 532.621094 -99.3125 508.089844 -104.417969 483.152344 C -109.652344 457.578125 -112.304688 431.265625 -112.304688 404.949219 C -112.304688 378.628906 -109.652344 352.316406 -104.417969 326.746094 C -99.316406 301.808594 -91.699219 277.277344 -81.785156 253.835938 C -72.050781 230.828125 -60.011719 208.636719 -45.988281 187.886719 C -32.105469 167.335938 -16.164062 148.011719 1.398438 130.453125 C 18.957031 112.894531 38.277344 96.949219 58.828125 83.066406 C 79.582031 69.046875 101.773438 57.003906 124.78125 47.269531 C 148.222656 37.355469 172.753906 29.742188 197.691406 24.636719 C 209.800781 22.160156 222.195312 20.246094 234.628906 18.929688 C 235.84375 18.800781 237.039062 19.296875 237.8125 20.246094 L 259.574219 46.9375 C 260.597656 48.191406 260.664062 49.972656 259.742188 51.300781 L 242.554688 75.984375 C 241.953125 76.847656 241.011719 77.40625 239.964844 77.519531 C 160.753906 86.15625 87.511719 123.285156 33.214844 182.464844 C -22.6875 243.398438 -53.480469 322.40625 -53.480469 404.945312 C -53.480469 448.25 -45.164062 490.371094 -28.761719 530.136719 C -20.878906 549.257812 -11.109375 567.75 0.269531 585.101562 C 11.53125 602.277344 24.480469 618.5 38.757812 633.320312 C 53.019531 648.125 68.738281 661.660156 85.46875 673.558594 C 102.34375 685.554688 120.414062 695.996094 139.179688 704.589844 C 172.007812 719.625 206.671875 729.03125 242.480469 732.640625 C 244.8125 732.875 246.035156 735.539062 244.695312 737.46875 L 225.417969 765.15625 C 224.632812 766.285156 224.691406 767.800781 225.558594 768.867188 L 239.683594 786.1875 C 241.417969 788.316406 239.710938 791.476562 236.980469 791.203125 C 223.742188 789.890625 210.601562 787.902344 197.691406 785.257812 Z M 197.691406 785.257812 " fill-opacity="1" fill-rule="nonzero"/><g clip-path="url(#f151790833)"><path fill="#5fa5db" d="M 660.820312 323.421875 C 655.5 297.410156 647.554688 271.824219 637.214844 247.375 C 627.066406 223.378906 614.507812 200.238281 599.882812 178.597656 C 585.410156 157.171875 568.789062 137.027344 550.484375 118.722656 C 532.175781 100.417969 512.03125 83.796875 490.609375 69.320312 C 468.964844 54.699219 445.824219 42.140625 421.832031 31.992188 C 397.382812 21.652344 371.796875 13.710938 345.785156 8.386719 C 325.464844 4.226562 304.550781 1.617188 283.625 0.625 L 274.101562 0.171875 C 270.609375 0.0078125 268.570312 4.054688 270.777344 6.761719 L 301.671875 44.652344 C 302.8125 46.050781 302.886719 48.035156 301.855469 49.515625 L 276.386719 86.105469 C 274.597656 88.675781 276.289062 92.214844 279.414062 92.441406 L 286.875 92.980469 C 449.585938 104.65625 577.042969 241.691406 577.042969 404.953125 C 577.042969 561.800781 459.835938 695.167969 304.410156 715.167969 L 302.121094 715.464844 C 301.253906 715.578125 300.480469 716.046875 299.984375 716.761719 L 267.714844 763.117188 C 266.925781 764.246094 266.984375 765.757812 267.855469 766.824219 L 300.425781 806.777344 C 301.082031 807.582031 302.097656 808 303.128906 807.894531 L 305.925781 807.609375 C 319.3125 806.238281 332.726562 804.1875 345.789062 801.515625 C 371.796875 796.191406 397.382812 788.25 421.832031 777.910156 C 445.828125 767.761719 468.96875 755.199219 490.609375 740.578125 C 512.035156 726.105469 532.179688 709.484375 550.484375 691.179688 C 568.789062 672.875 585.410156 652.730469 599.886719 631.304688 C 614.507812 609.664062 627.066406 586.523438 637.214844 562.527344 C 647.558594 538.078125 655.5 512.492188 660.824219 486.480469 C 666.28125 459.816406 669.046875 432.386719 669.046875 404.953125 C 669.042969 377.515625 666.277344 350.085938 660.820312 323.421875 Z M 644.566406 483.152344 C 639.464844 508.089844 631.851562 532.621094 621.933594 556.0625 C 612.203125 579.070312 600.160156 601.261719 586.136719 622.011719 C 572.253906 642.566406 556.3125 661.886719 538.753906 679.445312 C 521.195312 697.003906 501.871094 712.945312 481.320312 726.832031 C 460.566406 740.851562 438.375 752.894531 415.371094 762.628906 C 391.929688 772.542969 367.398438 780.15625 342.460938 785.261719 C 331.921875 787.417969 321.148438 789.148438 310.339844 790.429688 C 309.296875 790.550781 308.257812 790.128906 307.59375 789.3125 L 288.617188 766.035156 C 287.746094 764.96875 287.6875 763.457031 288.476562 762.328125 L 309.425781 732.230469 C 309.917969 731.527344 310.671875 731.066406 311.519531 730.941406 C 388.273438 719.855469 458.855469 681.730469 510.730469 623.222656 C 536.886719 593.71875 557.339844 560.21875 571.511719 523.652344 C 586.191406 485.789062 593.632812 445.851562 593.632812 404.953125 C 593.632812 321.261719 562.085938 241.433594 504.804688 180.171875 C 491.054688 165.464844 475.882812 151.945312 459.707031 139.984375 C 443.417969 127.9375 425.941406 117.351562 407.773438 108.519531 C 374.464844 92.328125 339.082031 82.011719 302.402344 77.773438 L 322.621094 48.730469 C 323.652344 47.25 323.578125 45.265625 322.4375 43.867188 L 301.804688 18.5625 C 315.503906 19.878906 329.117188 21.914062 342.460938 24.644531 C 367.402344 29.746094 391.929688 37.363281 415.371094 47.277344 C 438.378906 57.007812 460.570312 69.050781 481.324219 83.074219 C 501.871094 96.957031 521.195312 112.898438 538.753906 130.460938 C 556.3125 148.019531 572.253906 167.339844 586.140625 187.890625 C 600.160156 208.644531 612.203125 230.835938 621.9375 253.84375 C 631.851562 277.285156 639.464844 301.8125 644.570312 326.753906 C 649.804688 352.324219 652.457031 378.636719 652.457031 404.953125 C 652.453125 431.269531 649.800781 457.578125 644.566406 483.152344 Z M 644.566406 483.152344 " fill-opacity="1" fill-rule="nonzero"/></g></svg>